<svg xmlns="http://www.w3.org/2000/svg" viewBox="0 0 1180 610" width="1180" height="610">
  <defs>
    <!-- Styling -->
    <style>
      @import url('https://fonts.googleapis.com/css2?family=Fira+Code:wght@400;500;600;700&amp;display=swap');
      
      text {
        font-family: 'Fira Code', Consolas, Monaco, 'Courier New', monospace;
      }

      /* Base keyframes */
      @keyframes float {
        0%, 100% { transform: translateY(0px); }
        50% { transform: translateY(-8px); }
      }

      @keyframes revealItem {
        to { opacity: 1; }
      }

      @keyframes blink {
        0%, 49% { opacity: 1; }
        50%, 99% { opacity: 0; }
      }

      /* Left side animation styles */
      .float-group {
        animation: float 6s ease-in-out infinite;
      }

      /* Sequential reveal animation delays */
      .reveal-hello-res { animation: revealItem 0.1s forwards; animation-delay: 1.0s; opacity: 0; }
      .reveal-roles-res { animation: revealItem 0.1s forwards; animation-delay: 2.3s; opacity: 0; }
      .reveal-info-br { animation: revealItem 0.1s forwards; animation-delay: 3.5s; opacity: 0; }
      .reveal-info-l1 { animation: revealItem 0.1s forwards; animation-delay: 3.7s; opacity: 0; }
      .reveal-info-l2 { animation: revealItem 0.1s forwards; animation-delay: 3.9s; opacity: 0; }
      .reveal-info-l3 { animation: revealItem 0.1s forwards; animation-delay: 4.1s; opacity: 0; }
      .reveal-info-l4 { animation: revealItem 0.1s forwards; animation-delay: 4.3s; opacity: 0; }
      .reveal-info-l5 { animation: revealItem 0.1s forwards; animation-delay: 4.5s; opacity: 0; }
      .reveal-info-bc { animation: revealItem 0.1s forwards; animation-delay: 4.7s; opacity: 0; }
      .reveal-skills-res { animation: revealItem 0.1s forwards; animation-delay: 6.0s; opacity: 0; }

      /* Rotating typing roles animations */
      @keyframes role1-opacity {
        0%, 21.7% { opacity: 1; }
        21.8%, 100% { opacity: 0; }
      }
      @keyframes role2-opacity {
        0%, 24.9% { opacity: 0; }
        25%, 46.7% { opacity: 1; }
        46.8%, 100% { opacity: 0; }
      }
      @keyframes role3-opacity {
        0%, 49.9% { opacity: 0; }
        50%, 71.7% { opacity: 1; }
        71.8%, 100% { opacity: 0; }
      }
      @keyframes role4-opacity {
        0%, 74.9% { opacity: 0; }
        75%, 96.7% { opacity: 1; }
        96.8%, 100% { opacity: 0; }
      }

      .role-group-1 { animation: role1-opacity 12s infinite; }
      .role-group-2 { animation: role2-opacity 12s infinite; }
      .role-group-3 { animation: role3-opacity 12s infinite; }
      .role-group-4 { animation: role4-opacity 12s infinite; }

      .cursor-1, .cursor-2, .cursor-3, .cursor-4 {
        animation: blink 0.8s infinite;
      }

      /* Skills pills animations (glow waves) */
      @keyframes pulseGlow {
        0%, 100% {
          stroke-opacity: 0.15;
          fill-opacity: 0.03;
          filter: drop-shadow(0 0 1px rgba(0,0,0,0));
        }
        50% {
          stroke-opacity: 0.7;
          fill-opacity: 0.08;
          filter: drop-shadow(0 0 3px var(--pill-glow));
        }
      }
      .pill {
        animation: pulseGlow 4s ease-in-out infinite;
      }
      .pill-0 { --pill-glow: #2563EB; animation-delay: 0.0s; }
      .pill-1 { --pill-glow: #0F172A; animation-delay: 0.3s; }
      .pill-2 { --pill-glow: #10B981; animation-delay: 0.6s; }
      .pill-3 { --pill-glow: #2563EB; animation-delay: 0.9s; }
      .pill-4 { --pill-glow: #06B6D4; animation-delay: 1.2s; }
      .pill-5 { --pill-glow: #EAB308; animation-delay: 1.5s; }
      .pill-6 { --pill-glow: #2563EB; animation-delay: 1.8s; }
      .pill-7 { --pill-glow: #3390EC; animation-delay: 2.1s; }
      .pill-8 { --pill-glow: #FF9900; animation-delay: 2.4s; }
      .pill-9 { --pill-glow: #F05032; animation-delay: 2.7s; }
      .pill-10 { --pill-glow: #F24E1D; animation-delay: 3.0s; }

      /* Hover effects for socials */
      .social-btn {
        transition: transform 0.2s ease, filter 0.2s ease;
      }
      .social-btn:hover {
        transform: scale(1.1);
        filter: drop-shadow(0 0 6px rgba(37, 99, 235, 0.4));
      }
    </style>

    <!-- Gradients -->
    <radialGradient id="glow-blue" cx="50%" cy="50%" r="50%">
      <stop offset="0%" stop-color="#2563EB" stop-opacity="0.08" />
      <stop offset="100%" stop-color="#2563EB" stop-opacity="0" />
    </radialGradient>
    <radialGradient id="glow-cyan" cx="50%" cy="50%" r="50%">
      <stop offset="0%" stop-color="#06B6D4" stop-opacity="0.08" />
      <stop offset="100%" stop-color="#06B6D4" stop-opacity="0" />
    </radialGradient>
    <radialGradient id="glow-emerald" cx="50%" cy="50%" r="50%">
      <stop offset="0%" stop-color="#10B981" stop-opacity="0.05" />
      <stop offset="100%" stop-color="#10B981" stop-opacity="0" />
    </radialGradient>

    <linearGradient id="border-shimmer-grad-1" x1="0%" y1="0%" x2="100%" y2="100%">
      <stop offset="0%" stop-color="rgba(15,23,42,0.08)" />
      <stop offset="30%" stop-color="rgba(15,23,42,0.08)" />
      <stop offset="50%" stop-color="#2563EB" stop-opacity="0.4" />
      <stop offset="70%" stop-color="rgba(15,23,42,0.08)" />
      <stop offset="100%" stop-color="rgba(15,23,42,0.08)" />
      <animate attributeName="x1" values="0%;100%;0%" dur="10s" repeatCount="indefinite" />
      <animate attributeName="y1" values="0%;100%;0%" dur="10s" repeatCount="indefinite" />
    </linearGradient>

    <linearGradient id="border-shimmer-grad-2" x1="0%" y1="0%" x2="100%" y2="100%">
      <stop offset="0%" stop-color="rgba(15,23,42,0.08)" />
      <stop offset="20%" stop-color="rgba(15,23,42,0.08)" />
      <stop offset="50%" stop-color="#06B6D4" stop-opacity="0.4" />
      <stop offset="80%" stop-color="rgba(15,23,42,0.08)" />
      <stop offset="100%" stop-color="rgba(15,23,42,0.08)" />
      <animate attributeName="x1" values="100%;0%;100%" dur="12s" repeatCount="indefinite" />
      <animate attributeName="y1" values="0%;100%;0%" dur="12s" repeatCount="indefinite" />
    </linearGradient>

    <linearGradient id="ascii-grad" x1="0%" y1="0%" x2="0%" y2="100%">
      <stop offset="0%" stop-color="#2563EB">
        <animate attributeName="stop-color" values="#2563EB;#06B6D4;#2563EB" dur="10s" repeatCount="indefinite" />
      </stop>
      <stop offset="100%" stop-color="#06B6D4">
        <animate attributeName="stop-color" values="#06B6D4;#10B981;#06B6D4" dur="10s" repeatCount="indefinite" />
      </stop>
    </linearGradient>

    <linearGradient id="title-grad" x1="0%" y1="0%" x2="100%" y2="0%">
      <stop offset="0%" stop-color="#2563EB" />
      <stop offset="50%" stop-color="#06B6D4" />
      <stop offset="100%" stop-color="#10B981" />
    </linearGradient>

    <linearGradient id="scanline-sweep-grad" x1="0%" y1="0%" x2="100%" y2="0%">
      <stop offset="0%" stop-color="#2563EB" stop-opacity="0" />
      <stop offset="50%" stop-color="#2563EB" stop-opacity="0.25" />
      <stop offset="100%" stop-color="#2563EB" stop-opacity="0" />
    </linearGradient>

    <pattern id="scanlines" width="4" height="4" patternUnits="userSpaceOnUse">
      <rect width="4" height="2" fill="rgba(15, 23, 42, 0.04)" />
    </pattern>

    <!-- ASCII Reveal Mask -->
    <mask id="ascii-reveal-mask">
      <rect x="40" y="120" width="400" height="0" fill="#ffffff">
        <animate attributeName="height" values="0;360" dur="3s" begin="0.5s" fill="freeze" />
      </rect>
    </mask>

    <!-- Typing clip paths -->
    <clipPath id="clip-hello-prompt">
      <rect x="490" y="90" width="0" height="30">
        <animate attributeName="width" values="0; 250" dur="0.8s" begin="0.2s" fill="freeze" />
      </rect>
    </clipPath>
    <clipPath id="clip-roles-prompt">
      <rect x="490" y="145" width="0" height="30">
        <animate attributeName="width" values="0; 250" dur="0.8s" begin="1.3s" fill="freeze" />
      </rect>
    </clipPath>
    <clipPath id="clip-info-prompt">
      <rect x="490" y="200" width="0" height="30">
        <animate attributeName="width" values="0; 250" dur="0.8s" begin="2.6s" fill="freeze" />
      </rect>
    </clipPath>
    <clipPath id="clip-skills-prompt">
      <rect x="490" y="355" width="0" height="30">
        <animate attributeName="width" values="0; 260" dur="0.8s" begin="5.1s" fill="freeze" />
      </rect>
    </clipPath>

    <!-- Role typings clip paths -->
    <clipPath id="clip-role-1">
      <rect x="510" y="170" width="0" height="30">
        <animate attributeName="width" values="0;185;185;0;0" keyTimes="0;0.067;0.192;0.217;1" dur="12s" begin="2.3s" repeatCount="indefinite" />
      </rect>
    </clipPath>
    <clipPath id="clip-role-2">
      <rect x="510" y="170" width="0" height="30">
        <animate attributeName="width" values="0;0;120;120;0;0" keyTimes="0;0.25;0.317;0.442;0.467;1" dur="12s" begin="2.3s" repeatCount="indefinite" />
      </rect>
    </clipPath>
    <clipPath id="clip-role-3">
      <rect x="510" y="170" width="0" height="30">
        <animate attributeName="width" values="0;0;230;230;0;0" keyTimes="0;0.50;0.567;0.692;0.717;1" dur="12s" begin="2.3s" repeatCount="indefinite" />
      </rect>
    </clipPath>
    <clipPath id="clip-role-4">
      <rect x="510" y="170" width="0" height="30">
        <animate attributeName="width" values="0;0;160;160;0;0" keyTimes="0;0.75;0.817;0.942;0.967;1" dur="12s" begin="2.3s" repeatCount="indefinite" />
      </rect>
    </clipPath>
  </defs>

  <!-- Base Light Background -->
  <rect width="1180" height="610" fill="#FFFFFF" rx="16" />

  <!-- Ambient Radial Glows -->
  <circle cx="300" cy="200" r="400" fill="url(#glow-blue)" opacity="0.6">
    <animate attributeName="cx" values="300;350;250;300" dur="20s" repeatCount="indefinite" />
    <animate attributeName="cy" values="200;150;250;200" dur="20s" repeatCount="indefinite" />
  </circle>
  <circle cx="900" cy="450" r="500" fill="url(#glow-cyan)" opacity="0.6">
    <animate attributeName="cx" values="900;850;950;900" dur="25s" repeatCount="indefinite" />
    <animate attributeName="cy" values="450;500;400;450" dur="25s" repeatCount="indefinite" />
  </circle>
  <circle cx="600" cy="100" r="300" fill="url(#glow-emerald)" opacity="0.4">
    <animate attributeName="cx" values="600;650;550;600" dur="18s" repeatCount="indefinite" />
  </circle>

  <!-- Left Column - Cyber ASCII Frame -->
  <g>
    <!-- Glass Panel Background -->
    <rect x="40" y="40" width="400" height="530" rx="16" fill="#F8FAFC" fill-opacity="0.8" stroke="url(#border-shimmer-grad-1)" stroke-width="1.5" />
    
    <!-- CRT Grid scanlines inside the panel -->
    <rect x="40" y="40" width="400" height="530" fill="url(#scanlines)" rx="16" pointer-events="none" />
    
    <!-- Floating ASCII group -->
    <g class="float-group">
      <!-- Cyber vertical scanline sweep -->
      <rect x="60" y="120" width="360" height="2" fill="url(#scanline-sweep-grad)">
        <animate attributeName="y" values="120;490;120" dur="4s" repeatCount="indefinite" />
      </rect>

      <!-- ASCII text with reveal mask -->
      <text x="96" y="145" font-size="10" font-weight="bold" fill="url(#ascii-grad)" xml:space="preserve" mask="url(#ascii-reveal-mask)">
        <tspan x="96" dy="0">                  -:=*#%%#+=:                   </tspan>
    <tspan x="96" dy="13">                 -@@@@@@@@@@@#=                 </tspan>
    <tspan x="96" dy="13">                =@@@@@@@@@@@@@@:                </tspan>
    <tspan x="96" dy="13">                %@@@@@@@@@@@@@@@.  ..           </tspan>
    <tspan x="96" dy="13">               =@@@@@@@@%@@@@@@@=  ::           </tspan>
    <tspan x="96" dy="13">               +@@@@@@@*+@@#%@@+=  :.           </tspan>
    <tspan x="96" dy="13">                **#@@%*#*%=**+%=== ..           </tspan>
    <tspan x="96" dy="13">                 .-*:..::. . =+-.-.             </tspan>
    <tspan x="96" dy="13">                  :-=.    . :=-- .:             </tspan>
    <tspan x="96" dy="13">                 ::.+*:. .-*+ -+.=%-            </tspan>
    <tspan x="96" dy="13">                ::  :+###*@%.  +@@@@#+          </tspan>
    <tspan x="96" dy="13">              .==     .:+@#-.:*@@@@@@@%-        </tspan>
    <tspan x="96" dy="13">           :+#@@@@%#-:=:...-#@@@@@@@@@@@-       </tspan>
    <tspan x="96" dy="13">          +@@@@@@@@@* =.   -#@@@@@@@@@@@@+.     </tspan>
    <tspan x="96" dy="13">         -@@@@@@@@@@@--.   -*@@@@@@@@@@@@@@:    </tspan>
    <tspan x="96" dy="13">         #@@@@@@@@@@@-=:   ==@@@@@@@@@@@@@@#    </tspan>
    <tspan x="96" dy="13">         %@@@@@@@@@@@.-.    .@@@@@@@@@@@@@@@    </tspan>
    <tspan x="96" dy="13">        .@@@@@@@@@@@@        %@@@@@@@@@@@@@@    </tspan>
    <tspan x="96" dy="13">        +@@@@@@@@@@@%        *@@@@@@@@@@@@@*    </tspan>
    <tspan x="96" dy="13">        @@@@@@@@@@@@#        =@@@@@@@%:++=:     </tspan>
    <tspan x="96" dy="13">        #@@@@@@@@@@@+        .@@@@@@@@          </tspan>
    <tspan x="96" dy="13">        @@@@@@@@@@@@=         %@@@@@@@:         </tspan>
    <tspan x="96" dy="13">       :@@@@@@@@@@@@:         +@@@@@@@%         </tspan>
    <tspan x="96" dy="13">       -@@@@@@@@@@@@. :.     .-@@@@@@@#         </tspan>
    <tspan x="96" dy="13">       +@@@@@@@@@@@%   ..   :: %@@@@@@%         </tspan>
      </text>

      <!-- Digital terminal print-head cursor -->
      <rect x="96" y="136" width="10" height="13" fill="#2563EB" opacity="0.8">
        <animate attributeName="y" values="136;465" dur="3s" begin="0.5s" fill="freeze" />
        <animate attributeName="x" values="96;340;96" dur="3s" begin="0.5s" fill="freeze" />
        <animate attributeName="opacity" values="1;0;1;0;1" dur="1s" repeatCount="indefinite" />
      </rect>
    </g>
  </g>

  <!-- Right Column - macOS Terminal -->
  <g>
    <!-- Glass Terminal Window -->
    <rect x="460" y="40" width="680" height="530" rx="16" fill="#F8FAFC" fill-opacity="0.85" stroke="url(#border-shimmer-grad-2)" stroke-width="1.5" />
    
    <!-- macOS Window Buttons -->
    <circle cx="485" cy="60" r="6" fill="#FF5F56" />
    <circle cx="505" cy="60" r="6" fill="#FFBD2E" />
    <circle cx="525" cy="60" r="6" fill="#27C93F" />
    
    <!-- Terminal Title -->
    <text x="800" y="65" font-size="12" fill="#475569" text-anchor="middle" font-weight="500">harshwardhan@terminal:~</text>

    <!-- Terminal Prompt Line 1: cat hello.txt -->
    <text x="490" y="110" font-size="13" fill="#0F172A" clip-path="url(#clip-hello-prompt)" xml:space="preserve">
      <tspan fill="#2563EB" font-weight="bold">guest@harshwardhan</tspan><tspan fill="#475569">:</tspan><tspan fill="#06B6D4">~</tspan><tspan fill="#10B981">$</tspan> cat hello.txt
    </text>

    <!-- Prompt 1 Response: Welcome -->
    <text x="510" y="135" font-size="18" font-weight="bold" fill="url(#title-grad)" class="reveal-hello-res">
      Hi 👋 I'm Harshwardhan Bhaskar
    </text>

    <!-- Terminal Prompt Line 2: cat roles.txt -->
    <text x="490" y="165" font-size="13" fill="#0F172A" clip-path="url(#clip-roles-prompt)" xml:space="preserve">
      <tspan fill="#2563EB" font-weight="bold">guest@harshwardhan</tspan><tspan fill="#475569">:</tspan><tspan fill="#06B6D4">~</tspan><tspan fill="#10B981">$</tspan> cat roles.txt
    </text>

    <!-- Prompt 2 Response: Rotating Roles -->
    <g class="reveal-roles-res">
      <!-- Role 1 -->
      <g class="role-group-1">
        <text x="510" y="190" font-size="15" font-weight="600" fill="#2563EB" clip-path="url(#clip-role-1)">
          &gt; Full Stack Developer
        </text>
        <rect x="515" y="176" width="8" height="15" fill="#2563EB" class="cursor-1">
          <animate attributeName="x" values="515;695;695;515;515" keyTimes="0;0.067;0.192;0.217;1" dur="12s" begin="2.3s" repeatCount="indefinite" />
        </rect>
      </g>
      <!-- Role 2 -->
      <g class="role-group-2">
        <text x="510" y="190" font-size="15" font-weight="600" fill="#2563EB" clip-path="url(#clip-role-2)">
          &gt; SaaS Builder
        </text>
        <rect x="515" y="176" width="8" height="15" fill="#2563EB" class="cursor-2">
          <animate attributeName="x" values="515;515;630;630;515;515" keyTimes="0;0.25;0.317;0.442;0.467;1" dur="12s" begin="2.3s" repeatCount="indefinite" />
        </rect>
      </g>
      <!-- Role 3 -->
      <g class="role-group-3">
        <text x="510" y="190" font-size="15" font-weight="600" fill="#2563EB" clip-path="url(#clip-role-3)">
          &gt; AI Integration Specialist
        </text>
        <rect x="515" y="176" width="8" height="15" fill="#2563EB" class="cursor-3">
          <animate attributeName="x" values="515;515;740;740;515;515" keyTimes="0;0.50;0.567;0.692;0.717;1" dur="12s" begin="2.3s" repeatCount="indefinite" />
        </rect>
      </g>
      <!-- Role 4 -->
      <g class="role-group-4">
        <text x="510" y="190" font-size="15" font-weight="600" fill="#2563EB" clip-path="url(#clip-role-4)">
          &gt; Software Engineer
        </text>
        <rect x="515" y="176" width="8" height="15" fill="#2563EB" class="cursor-4">
          <animate attributeName="x" values="515;515;670;670;515;515" keyTimes="0;0.75;0.817;0.942;0.967;1" dur="12s" begin="2.3s" repeatCount="indefinite" />
        </rect>
      </g>
    </g>

    <!-- Terminal Prompt Line 3: cat info.json -->
    <text x="490" y="220" font-size="13" fill="#0F172A" clip-path="url(#clip-info-prompt)" xml:space="preserve">
      <tspan fill="#2563EB" font-weight="bold">guest@harshwardhan</tspan><tspan fill="#475569">:</tspan><tspan fill="#06B6D4">~</tspan><tspan fill="#10B981">$</tspan> cat info.json
    </text>

    <!-- Prompt 3 Response: JSON Object -->
    <text x="510" y="245" font-size="12" fill="#0F172A" xml:space="preserve">
      <tspan x="510" dy="0" class="reveal-info-br" fill="#475569">{</tspan>
      <tspan x="510" dy="18" class="reveal-info-l1">  <tspan fill="#B91C1C">"location"</tspan>: <tspan fill="#1D4ED8">"Ranchi, Jharkhand, India"</tspan>,</tspan>
      <tspan x="510" dy="18" class="reveal-info-l2">  <tspan fill="#B91C1C">"education"</tspan>: <tspan fill="#1D4ED8">"B.Tech CSE @ BIT Mesra"</tspan>,</tspan>
      <tspan x="510" dy="18" class="reveal-info-l3">  <tspan fill="#B91C1C">"focus"</tspan>: <tspan fill="#1D4ED8">"Full-Stack Dev, SaaS, AI Systems"</tspan>,</tspan>
      <tspan x="510" dy="18" class="reveal-info-l4">  <tspan fill="#B91C1C">"portfolio"</tspan>: <tspan fill="#1D4ED8">"harshwardhan-portfolio.pages.dev"</tspan>,</tspan>
      <tspan x="510" dy="18" class="reveal-info-l5">  <tspan fill="#B91C1C">"email"</tspan>: <tspan fill="#1D4ED8">"hwbhaskar60147@gmail.com"</tspan></tspan>
      <tspan x="510" dy="18" class="reveal-info-bc" fill="#475569">}</tspan>
    </text>

    <!-- Terminal Prompt Line 4: cat skills.txt -->
    <text x="490" y="375" font-size="13" fill="#0F172A" clip-path="url(#clip-skills-prompt)" xml:space="preserve">
      <tspan fill="#2563EB" font-weight="bold">guest@harshwardhan</tspan><tspan fill="#475569">:</tspan><tspan fill="#06B6D4">~</tspan><tspan fill="#10B981">$</tspan> cat skills.txt
    </text>

    <!-- Skills Section Pills -->
    <!-- Row 1 -->
    <g class="pill pill-0 reveal-skills-res">
      <rect x="510" y="395" width="55" height="22" rx="11" fill="rgba(37,99,235,0.03)" stroke="rgba(37,99,235,0.18)" stroke-width="1" />
      <text x="537.5" y="410" font-size="10" fill="#2563EB" font-weight="600" text-anchor="middle">React</text>
    </g>
    <g class="pill pill-1 reveal-skills-res">
      <rect x="575" y="395" width="65" height="22" rx="11" fill="rgba(15,23,42,0.02)" stroke="rgba(15,23,42,0.12)" stroke-width="1" />
      <text x="607.5" y="410" font-size="10" fill="#0F172A" font-weight="600" text-anchor="middle">Next.js</text>
    </g>
    <g class="pill pill-2 reveal-skills-res">
      <rect x="650" y="395" width="65" height="22" rx="11" fill="rgba(16,185,129,0.03)" stroke="rgba(16,185,129,0.18)" stroke-width="1" />
      <text x="682.5" y="410" font-size="10" fill="#10B981" font-weight="600" text-anchor="middle">Node.js</text>
    </g>
    <g class="pill pill-3 reveal-skills-res">
      <rect x="725" y="395" width="85" height="22" rx="11" fill="rgba(37,99,235,0.03)" stroke="rgba(37,99,235,0.18)" stroke-width="1" />
      <text x="767.5" y="410" font-size="10" fill="#2563EB" font-weight="600" text-anchor="middle">TypeScript</text>
    </g>
    <g class="pill pill-4 reveal-skills-res">
      <rect x="820" y="395" width="70" height="22" rx="11" fill="rgba(6,182,212,0.03)" stroke="rgba(6,182,212,0.18)" stroke-width="1" />
      <text x="855" y="410" font-size="10" fill="#06B6D4" font-weight="600" text-anchor="middle">Tailwind</text>
    </g>
    <g class="pill pill-5 reveal-skills-res">
      <rect x="900" y="395" width="60" height="22" rx="11" fill="rgba(234,179,8,0.03)" stroke="rgba(234,179,8,0.18)" stroke-width="1" />
      <text x="930" y="410" font-size="10" fill="#EAB308" font-weight="600" text-anchor="middle">Python</text>
    </g>

    <!-- Row 2 -->
    <g class="pill pill-6 reveal-skills-res">
      <rect x="510" y="425" width="60" height="22" rx="11" fill="rgba(37,99,235,0.03)" stroke="rgba(37,99,235,0.18)" stroke-width="1" />
      <text x="540" y="440" font-size="10" fill="#2563EB" font-weight="600" text-anchor="middle">Docker</text>
    </g>
    <g class="pill pill-7 reveal-skills-res">
      <rect x="580" y="425" width="75" height="22" rx="11" fill="rgba(51,144,236,0.03)" stroke="rgba(51,144,236,0.18)" stroke-width="1" />
      <text x="617.5" y="440" font-size="10" fill="#3390EC" font-weight="600" text-anchor="middle">Postgres</text>
    </g>
    <g class="pill pill-8 reveal-skills-res">
      <rect x="665" y="425" width="50" height="22" rx="11" fill="rgba(255,153,0,0.03)" stroke="rgba(255,153,0,0.18)" stroke-width="1" />
      <text x="690" y="440" font-size="10" fill="#FF9900" font-weight="600" text-anchor="middle">AWS</text>
    </g>
    <g class="pill pill-9 reveal-skills-res">
      <rect x="725" y="425" width="40" height="22" rx="11" fill="rgba(240,80,50,0.03)" stroke="rgba(240,80,50,0.18)" stroke-width="1" />
      <text x="745" y="440" font-size="10" fill="#F05032" font-weight="600" text-anchor="middle">Git</text>
    </g>
    <g class="pill pill-10 reveal-skills-res">
      <rect x="775" y="425" width="55" height="22" rx="11" fill="rgba(242,78,29,0.03)" stroke="rgba(242,78,29,0.18)" stroke-width="1" />
      <text x="802.5" y="440" font-size="10" fill="#F24E1D" font-weight="600" text-anchor="middle">Figma</text>
    </g>

    <!-- Social Links (reveals at 6.5s) -->
    <g opacity="0">
      <animate attributeName="opacity" values="0;1" dur="0.5s" begin="6.5s" fill="freeze" />
      
      <!-- GitHub Button -->
      <g class="social-btn" transform="translate(510, 480)">
        <a href="https://github.com/HarshwardhanBhaskar" target="_blank">
          <circle cx="12" cy="12" r="18" fill="rgba(15,23,42,0.02)" stroke="rgba(15,23,42,0.1)" stroke-width="1" />
          <path d="M12 2C6.477 2 2 6.484 2 12.017c0 4.425 2.865 8.18 6.839 9.504.5.092.682-.217.682-.483 0-.237-.008-.868-.013-1.703-2.782.605-3.369-1.343-3.369-1.343-.454-1.158-1.11-1.466-1.11-1.466-.908-.62.069-.608.069-.608 1.003.07 1.53 1.032 1.53 1.032.892 1.53 2.341 1.088 2.91.832.092-.647.35-1.088.636-1.338-2.22-.253-4.555-1.113-4.555-4.951 0-1.093.39-1.988 1.029-2.688-.103-.253-.446-1.272.098-2.65 0 0 .84-.27 2.75 1.026A9.564 9.564 0 0112 6.844c.85.004 1.705.115 2.504.337 1.909-1.296 2.747-1.027 2.747-1.027.546 1.379.202 2.398.1 2.651.64.7 1.028 1.595 1.028 2.688 0 3.848-2.339 4.695-4.566 4.943.359.309.678.92.678 1.855 0 1.338-.012 2.419-.012 2.747 0 .268.18.58.688.482A10.019 10.019 0 0022 12.017C22 6.484 17.522 2 12 2z" fill="#475569" transform="scale(0.8) translate(3, 3)" />
        </a>
      </g>
      
      <!-- LinkedIn Button -->
      <g class="social-btn" transform="translate(560, 480)">
        <a href="https://linkedin.com/in/harshwardhan-bhaskar-991949294" target="_blank">
          <circle cx="12" cy="12" r="18" fill="rgba(15,23,42,0.02)" stroke="rgba(15,23,42,0.1)" stroke-width="1" />
          <path d="M19 0h-14c-2.761 0-5 2.239-5 5v14c0 2.761 2.239 5 5 5h14c2.762 0 5-2.239 5-5v-14c0-2.761-2.238-5-5-5zm-11 19h-3v-11h3v11zm-1.5-12.268c-.966 0-1.75-.779-1.75-1.75s.784-1.75 1.75-1.75 1.75.779 1.75 1.75-.784 1.75-1.75 1.75zm13.5 12.268h-3v-5.604c0-3.368-4-3.113-4 0v5.604h-3v-11h3v1.765c1.396-2.586 7-2.777 7 2.476v6.759z" fill="#475569" transform="scale(0.8) translate(3, 3)" />
        </a>
      </g>

      <!-- Email Button -->
      <g class="social-btn" transform="translate(610, 480)">
        <a href="mailto:hwbhaskar60147@gmail.com">
          <circle cx="12" cy="12" r="18" fill="rgba(15,23,42,0.02)" stroke="rgba(15,23,42,0.1)" stroke-width="1" />
          <path d="M20 4H4c-1.1 0-1.99.9-1.99 2L2 18c0 1.1.9 2 2 2h16c1.1 0 2-.9 2-2V6c0-1.1-.9-2-2-2zm0 4l-8 5-8-5V6l8 5 8-5v2z" fill="#475569" transform="scale(0.8) translate(3, 3)" />
        </a>
      </g>

      <!-- Portfolio Button -->
      <g class="social-btn" transform="translate(660, 480)">
        <a href="https://harshwardhan-portfolio.pages.dev/" target="_blank">
          <circle cx="12" cy="12" r="18" fill="rgba(15,23,42,0.02)" stroke="rgba(15,23,42,0.1)" stroke-width="1" />
          <path d="M12 2C6.48 2 2 6.48 2 12s4.48 10 10 10 10-4.48 10-10S17.52 2 12 2zm-1 17.93c-3.95-.49-7-3.85-7-7.93 0-.62.08-1.21.21-1.79L9 15v1c0 1.1.9 2 2 2v1.93zm6.9-2.53c-.26-.81-1-1.4-1.9-1.4h-1v-3c0-.55-.45-1-1-1h-6v-2h2c.55 0 1-.45 1-1V7h2c1.1 0 2-.9 2-2v-.41c2.93 1.19 5 4.06 5 7.41 0 2.08-.8 3.97-2.1 5.4z" fill="#475569" transform="scale(0.8) translate(3, 3)" />
        </a>
      </g>
    </g>
  </g>
</svg>
